<svg width="64" height="26" viewBox="0 0 64 26" xmlns="http://www.w3.org/2000/svg"><path d="M14.1232 0.5C13.1291 0.547624 11.9015 1.18026 11.2002 2.06963C10.5573 2.83637 10.0076 4.08157 10.1469 5.25073C11.2696 5.34836 12.3918 4.66525 13.0931 3.7997C13.7836 2.91033 14.2399 1.71797 14.1232 0.5ZM23.6665 2.87886V20.7376H26.4942V14.7847H30.3636C33.9151 14.7847 36.4654 12.3142 36.4654 8.83181C36.4654 5.34933 33.9617 2.87886 30.4566 2.87886H23.6665ZM26.4942 5.26004H29.7683C32.2055 5.26004 33.6377 6.57564 33.6377 8.83181C33.6377 11.088 32.2174 12.4035 29.7683 12.4035H26.4942V5.26004ZM13.993 5.85533C12.356 5.85533 11.1856 6.74827 10.4213 6.74827C9.64499 6.74827 8.48655 5.86695 7.14713 5.86695C5.51007 5.86695 3.90676 6.89455 3.06145 8.39231C1.32438 11.3866 2.61052 15.8194 4.28924 18.2566C5.11194 19.4638 6.10537 20.7376 7.44478 20.7376C8.67228 20.6912 9.08779 19.9935 10.5701 19.9935C12.0631 19.9935 12.5048 20.7376 13.8442 20.7376C15.1836 20.7376 15.9945 19.5103 16.816 18.303C17.7542 16.9338 18.1374 15.5991 18.1601 15.5288C18.1374 15.5062 15.5678 14.5196 15.544 11.5478C15.5214 9.06427 17.5695 7.88001 17.6624 7.81096C16.504 6.09413 14.5883 5.85533 14.1418 5.85533H13.993ZM42.9531 7.64122C39.9898 7.64122 37.7997 9.30262 37.7187 11.5874H40.2301C40.4373 10.5015 41.4645 9.78985 42.8718 9.78985C44.5779 9.78985 45.5414 10.5712 45.5414 12.0082L45.5436 12.9988L42.0533 13.1825C38.8137 13.3742 37.0607 14.6759 37.0607 16.938C37.0607 19.2227 38.8706 20.74 41.4649 20.74C43.2175 20.74 44.8439 19.869 45.5809 18.4891H45.639V20.6029H48.2202V11.8269C48.2214 9.28021 46.1475 7.64122 42.9531 7.64122ZM49.2642 7.64122L54.0359 20.6773L53.7801 21.4702C53.3491 22.8144 52.6512 23.3305 51.4059 23.3305C51.1927 23.3305 50.7894 23.309 50.6036 23.2863V25.435C50.7917 25.4767 51.4464 25.5 51.65 25.5C54.3967 25.5 55.6895 24.4667 56.8193 21.3307L61.7654 7.64122H58.9029L55.5846 18.2193H55.5265L52.2082 7.64122H49.2642ZM45.5436 14.7847L45.5343 15.8172C45.5343 17.4685 44.1043 18.6448 42.2137 18.6448C40.7266 18.6448 39.7814 17.9445 39.7814 16.8706C39.7814 15.7622 40.6928 15.1173 42.4346 15.015L45.5436 14.7847Z"/></svg>