<svg width="512" height="512" viewBox="0 0 512 512" xmlns="http://www.w3.org/2000/svg"><path d="M2.16998 49.7778C2.16998 37.9556 11.6811 28.4444 23.5033 28.4444H63.9478C83.5033 28.4444 100.837 39.8222 108.926 56.8889H474.259C497.637 56.8889 514.703 79.1111 508.57 101.689L472.126 237.067C464.57 264.978 439.237 284.444 410.348 284.444H153.903L158.703 309.778C160.659 319.822 169.459 327.111 179.681 327.111H435.948C447.77 327.111 457.281 336.622 457.281 348.444C457.281 360.267 447.77 369.778 435.948 369.778H179.681C148.926 369.778 122.526 347.911 116.837 317.778L70.97 76.8889C70.3478 73.5111 67.4144 71.1111 63.9478 71.1111H23.5033C11.6811 71.1111 2.16998 61.6 2.16998 49.7778ZM115.948 440.889C115.948 435.286 117.051 429.738 119.196 424.561C121.34 419.384 124.483 414.681 128.445 410.719C132.406 406.757 137.11 403.614 142.287 401.47C147.463 399.326 153.011 398.222 158.614 398.222C164.217 398.222 169.766 399.326 174.942 401.47C180.119 403.614 184.822 406.757 188.784 410.719C192.746 414.681 195.889 419.384 198.033 424.561C200.177 429.738 201.281 435.286 201.281 440.889C201.281 446.492 200.177 452.04 198.033 457.217C195.889 462.393 192.746 467.097 188.784 471.059C184.822 475.021 180.119 478.164 174.942 480.308C169.766 482.452 164.217 483.556 158.614 483.556C153.011 483.556 147.463 482.452 142.287 480.308C137.11 478.164 132.406 475.021 128.445 471.059C124.483 467.097 121.34 462.393 119.196 457.217C117.051 452.04 115.948 446.492 115.948 440.889ZM414.614 398.222C425.93 398.222 436.783 402.717 444.784 410.719C452.786 418.721 457.281 429.573 457.281 440.889C457.281 452.205 452.786 463.057 444.784 471.059C436.783 479.06 425.93 483.556 414.614 483.556C403.299 483.556 392.446 479.06 384.445 471.059C376.443 463.057 371.948 452.205 371.948 440.889C371.948 429.573 376.443 418.721 384.445 410.719C392.446 402.717 403.299 398.222 414.614 398.222Z"/></svg>