<svg width="24" height="24" viewBox="0 0 24 24" fill="none" xmlns="http://www.w3.org/2000/svg">
<path d="M12 22C17.5228 22 22 17.5228 22 12C22 6.47715 17.5228 2 12 2C6.47715 2 2 6.47715 2 12C2 17.5228 6.47715 22 12 22Z" fill="url(#paint0_linear_2_16)"/>
<path d="M12 20C16.4183 20 20 16.4183 20 12C20 7.58172 16.4183 4 12 4C7.58172 4 4 7.58172 4 12C4 16.4183 7.58172 20 12 20Z" fill="url(#paint1_linear_2_16)"/>
<path d="M8 14L8.89 10H11.82L11.61 10.9H9.74L9.6 11.52H11.46L11.26 12.42H9.4L9.06 14H8Z" fill="#FFD554"/>
<path d="M11.8 12.26C11.7891 11.662 12.0137 11.0837 12.4252 10.6498C12.8367 10.2158 13.4023 9.9609 14 9.94001H14.13C14.5332 9.90501 14.9366 10.0062 15.2755 10.2273C15.6145 10.4485 15.8696 10.7769 16 11.16L15 11.49C14.9456 11.2966 14.8266 11.1277 14.6629 11.0113C14.4992 10.8948 14.3005 10.8379 14.1 10.85C13.9319 10.8552 13.7664 10.8934 13.6131 10.9626C13.4598 11.0317 13.3216 11.1304 13.2064 11.253C13.0913 11.3756 13.0014 11.5197 12.942 11.677C12.8825 11.8344 12.8547 12.0019 12.86 12.17C12.86 12.4352 12.9654 12.6896 13.1529 12.8771C13.3404 13.0647 13.5948 13.17 13.86 13.17C14.0308 13.1662 14.1983 13.1226 14.3493 13.0427C14.5003 12.9629 14.6307 12.849 14.73 12.71L15.53 13.24C15.3277 13.5059 15.0657 13.7205 14.7652 13.8664C14.4647 14.0123 14.134 14.0855 13.8 14.08C13.5561 14.1005 13.3106 14.0724 13.0777 13.9973C12.8447 13.9222 12.629 13.8017 12.443 13.6426C12.2569 13.4836 12.1043 13.2892 11.994 13.0707C11.8836 12.8523 11.8177 12.6141 11.8 12.37C11.7967 12.3334 11.7967 12.2966 11.8 12.26Z" fill="#FFD554"/>
<path d="M12 5.5C13.2856 5.5 14.5423 5.88122 15.6112 6.59545C16.6801 7.30968 17.5132 8.32484 18.0052 9.51256C18.4972 10.7003 18.6259 12.0072 18.3751 13.2681C18.1243 14.529 17.5052 15.6872 16.5962 16.5962C15.6872 17.5052 14.529 18.1243 13.2681 18.3751C12.0072 18.6259 10.7003 18.4972 9.51256 18.0052C8.32484 17.5132 7.30968 16.6801 6.59545 15.6112C5.88122 14.5423 5.5 13.2856 5.5 12C5.5 10.2761 6.18482 8.62279 7.40381 7.40381C8.6228 6.18482 10.2761 5.5 12 5.5ZM12 5C10.6155 5 9.26216 5.41054 8.11101 6.17971C6.95987 6.94888 6.06266 8.04213 5.53285 9.32122C5.00303 10.6003 4.86441 12.0078 5.13451 13.3656C5.4046 14.7235 6.07129 15.9708 7.05026 16.9497C8.02922 17.9287 9.2765 18.5954 10.6344 18.8655C11.9922 19.1356 13.3997 18.997 14.6788 18.4672C15.9579 17.9373 17.0511 17.0401 17.8203 15.889C18.5895 14.7378 19 13.3845 19 12C19 10.1435 18.2625 8.36301 16.9497 7.05025C15.637 5.7375 13.8565 5 12 5Z" fill="url(#paint2_linear_2_16)"/>
<defs>
<linearGradient id="paint0_linear_2_16" x1="12" y1="22" x2="12" y2="2" gradientUnits="userSpaceOnUse">
<stop stop-color="#CDA537"/>
<stop offset="1" stop-color="#FFD554"/>
</linearGradient>
<linearGradient id="paint1_linear_2_16" x1="12" y1="20" x2="12" y2="4" gradientUnits="userSpaceOnUse">
<stop stop-color="#1A1A1B"/>
<stop offset="1" stop-color="#2A2A2A"/>
</linearGradient>
<linearGradient id="paint2_linear_2_16" x1="2.71627e-06" y1="19" x2="12" y2="5" gradientUnits="userSpaceOnUse">
<stop stop-color="#CDA537"/>
<stop offset="1" stop-color="#FFD554"/>
</linearGradient>
</defs>
</svg>
