<svg width="64" height="26" viewBox="0 0 64 26" xmlns="http://www.w3.org/2000/svg"><path d="M24.1479 11.3631H13.2849V15.3128H18.5494C18.1155 16.22 17.4923 17.0115 16.7323 17.6532L16.735 17.6558H16.7297C15.5279 18.6603 13.9844 19.2625 12.2961 19.2625C9.3667 19.2625 6.86592 17.4428 5.85876 14.871C5.5511 14.0874 5.3828 13.238 5.3828 12.3492C5.3828 10.916 5.81932 9.58805 6.56351 8.4836L6.69236 8.31267C7.94407 6.56659 9.98204 5.43584 12.2935 5.43584C14.1395 5.43584 15.8198 6.15637 17.0531 7.34233L20.3507 3.65821C18.2417 1.70438 15.407 0.5 12.2961 0.5C8.20703 0.5 4.6018 2.5748 2.46916 5.72511C1.19115 7.61845 0.444336 9.89834 0.444336 12.3518C0.444336 14.2977 0.912412 16.1332 1.74338 17.7531C3.70772 21.5818 7.69425 24.2036 12.2935 24.2036C15.4517 24.2036 18.3206 22.9703 20.4454 20.956L20.4427 20.9534C22.7226 18.8023 24.1453 15.7388 24.1453 12.3544V11.3631H24.1479ZM55.8377 19.5439L51.1753 7.295H54.0075L57.192 16.6171L61.097 7.295H63.5557C63.5557 7.295 55.9297 25.287 55.8666 25.4369L53.4079 25.5C53.4526 25.3974 55.8377 19.5439 55.8377 19.5439ZM47.862 14.8079C47.862 16.3252 46.5261 17.406 44.759 17.406C43.3706 17.406 42.4844 16.7617 42.4844 15.7756C42.4844 14.7579 43.3364 14.1662 44.9641 14.0716L47.8699 13.8586L47.862 14.8079ZM45.4506 7.295C42.6816 7.295 40.6331 8.82282 40.5569 10.9213H42.9078C43.1024 9.92201 44.0595 9.26986 45.3744 9.26986C46.9679 9.26986 47.8699 9.98512 47.8699 11.3078V12.2203L44.6091 12.3886C41.5824 12.5648 39.9415 13.7613 39.9415 15.8387C39.9415 17.9372 41.6324 19.3309 44.0569 19.3309C45.6952 19.3309 47.2151 18.5315 47.9041 17.264H47.9567L47.9646 19.3309H50.3707V11.1422C50.3733 8.80178 48.4326 7.295 45.4506 7.295ZM33.5252 11.3052H30.3144V4.88888H33.5252C35.8156 4.88888 37.2856 5.96966 37.2856 8.09967C37.2856 10.2297 35.8261 11.3052 33.5252 11.3052ZM34.2931 2.48276H27.9083V19.3309H30.3144V13.714H34.2037C37.5433 13.714 39.9415 11.3841 39.9415 8.09704C39.9415 4.80999 37.588 2.48276 34.2931 2.48276Z"/></svg>