<?xml version="1.0" encoding="utf-8"?><svg viewBox="0 0 640 640" xmlns="http://www.w3.org/2000/svg" xmlns:xlink="http://www.w3.org/1999/xlink"><style>:root>svg{display:none}:root>svg:target{display:block}</style><svg viewBox="0 0 64 26" id="apple-pay" xmlns="http://www.w3.org/2000/svg"><path d="M14.123.5c-.994.048-2.221.68-2.923 1.57-.643.766-1.192 2.012-1.053 3.18 1.123.098 2.245-.585 2.946-1.45.69-.89 1.147-2.082 1.03-3.3zm9.543 2.379v17.859h2.828v-5.953h3.87c3.551 0 6.101-2.47 6.101-5.953s-2.503-5.953-6.008-5.953h-6.79zm2.828 2.381h3.274c2.438 0 3.87 1.316 3.87 3.572 0 2.256-1.42 3.571-3.87 3.571h-3.274V5.26zm-12.501.595c-1.637 0-2.807.893-3.572.893-.776 0-1.934-.881-3.274-.881-1.637 0-3.24 1.028-4.086 2.525-1.737 2.995-.45 7.427 1.228 9.865.823 1.207 1.816 2.48 3.156 2.48 1.227-.046 1.643-.743 3.125-.743 1.493 0 1.935.744 3.274.744 1.34 0 2.15-1.228 2.972-2.435.938-1.37 1.321-2.704 1.344-2.774-.023-.023-2.592-1.01-2.616-3.981-.023-2.484 2.026-3.668 2.118-3.737-1.158-1.717-3.074-1.956-3.52-1.956h-.149zm28.96 1.786c-2.963 0-5.153 1.662-5.234 3.946h2.511c.207-1.085 1.235-1.797 2.642-1.797 1.706 0 2.67.781 2.67 2.218l.002.99-3.49.184c-3.24.192-4.993 1.494-4.993 3.756 0 2.285 1.81 3.802 4.404 3.802 1.752 0 3.379-.871 4.116-2.25h.058v2.113h2.581v-8.776c.001-2.547-2.072-4.186-5.267-4.186zm6.311 0l4.772 13.036-.256.793c-.43 1.344-1.129 1.86-2.374 1.86-.213 0-.617-.021-.802-.044v2.149c.188.042.842.065 1.046.065 2.747 0 4.04-1.033 5.17-4.17l4.945-13.689h-2.862L55.585 18.22h-.059L52.209 7.641h-2.944zm-3.72 7.144l-.01 1.032c0 1.651-1.43 2.828-3.32 2.828-1.487 0-2.433-.7-2.433-1.774 0-1.109.912-1.754 2.654-1.856l3.109-.23z"/></svg><svg viewBox="0 0 512 512" id="arrow-type-1" xmlns="http://www.w3.org/2000/svg"><path d="M233.4 374.65c12.5 12.5 32.8 12.5 45.3 0l192-192c12.5-12.5 12.5-32.8 0-45.3s-32.8-12.5-45.3 0L256 306.75 86.6 137.45c-12.5-12.5-32.8-12.5-45.3 0s-12.5 32.8 0 45.3l192 192 .1-.1z"/></svg><svg viewBox="0 0 512 512" id="arrow-type-2" xmlns="http://www.w3.org/2000/svg"><path d="M222.098 385.94c18.742 18.742 49.179 18.742 67.921 0l191.92-191.92c13.794-13.795 17.843-34.336 10.346-52.329-7.497-17.992-24.89-29.687-44.382-29.687l-383.84.15c-19.342 0-36.884 11.695-44.381 29.687-7.497 17.993-3.299 38.534 10.346 52.329l191.92 191.919.15-.149z"/></svg><svg viewBox="0 0 512 512" id="arrow-type-3" xmlns="http://www.w3.org/2000/svg"><path d="M374.65 278.6c12.5-12.5 12.5-32.8 0-45.3l-192-192c-12.5-12.5-32.8-12.5-45.3 0s-12.5 32.8 0 45.3L306.75 256l-169.3 169.4c-12.5 12.5-12.5 32.8 0 45.3s32.8 12.5 45.3 0l192-192-.1-.1z"/></svg><svg viewBox="0 0 512 512" id="barcode" xmlns="http://www.w3.org/2000/svg"><path d="M24 32C10.7 32 0 42.7 0 56v400c0 13.3 10.7 24 24 24h16c13.3 0 24-10.7 24-24V56c0-13.3-10.7-24-24-24H24zm88 0c-8.8 0-16 7.2-16 16v416c0 8.8 7.2 16 16 16s16-7.2 16-16V48c0-8.8-7.2-16-16-16zm72 0c-13.3 0-24 10.7-24 24v400c0 13.3 10.7 24 24 24h16c13.3 0 24-10.7 24-24V56c0-13.3-10.7-24-24-24h-16zm96 0c-13.3 0-24 10.7-24 24v400c0 13.3 10.7 24 24 24h16c13.3 0 24-10.7 24-24V56c0-13.3-10.7-24-24-24h-16zm168 24v400c0 13.3 10.7 24 24 24h16c13.3 0 24-10.7 24-24V56c0-13.3-10.7-24-24-24h-16c-13.3 0-24 10.7-24 24zm-64-8v416c0 8.8 7.2 16 16 16s16-7.2 16-16V48c0-8.8-7.2-16-16-16s-16 7.2-16 16z"/></svg><svg viewBox="0 0 512 512" id="card-shoping" xmlns="http://www.w3.org/2000/svg"><path d="M2.17 49.778a21.282 21.282 0 0121.333-21.334h40.445c19.555 0 36.889 11.378 44.978 28.445h365.333c23.378 0 40.444 22.222 34.311 44.8l-36.444 135.378c-7.556 27.911-32.889 47.377-61.778 47.377H153.903l4.8 25.334c1.956 10.044 10.756 17.333 20.978 17.333h256.267a21.282 21.282 0 0121.333 21.333 21.282 21.282 0 01-21.333 21.334H179.681c-30.755 0-57.155-21.867-62.844-52L70.97 76.888c-.622-3.377-3.556-5.777-7.022-5.777H23.503A21.282 21.282 0 012.17 49.778zm113.778 391.111a42.655 42.655 0 0112.497-30.17 42.665 42.665 0 0169.588 46.498 42.67 42.67 0 01-55.746 23.091 42.67 42.67 0 01-26.339-39.419zm298.666-42.667a42.664 42.664 0 0142.667 42.667 42.666 42.666 0 11-42.667-42.667z"/></svg><svg viewBox="0 0 28 28" id="close" xmlns="http://www.w3.org/2000/svg"><path d="M26.706 22.852l-8.884-8.913 8.904-8.797a.94.94 0 000-1.327l-2.532-2.544A.932.932 0 0023.53 1a.96.96 0 00-.664.27l-8.863 8.771-8.876-8.764a.932.932 0 00-.664-.27.961.961 0 00-.663.27L1.274 3.822a.94.94 0 000 1.326l8.904 8.798L1.3 22.852a.937.937 0 00-.277.663c0 .25.094.487.277.663l2.533 2.544a.933.933 0 001.327 0l8.842-8.878 8.85 8.872a.933.933 0 001.327 0l2.532-2.545a.937.937 0 00.278-.663.97.97 0 00-.284-.656z"/></svg><svg fill="none" viewBox="0 0 24 24" id="fifa-coin" xmlns="http://www.w3.org/2000/svg"><path d="M12 22c5.523 0 10-4.477 10-10S17.523 2 12 2 2 6.477 2 12s4.477 10 10 10z" fill="url(#hpaint0_linear_2_16)"/><path d="M12 20a8 8 0 100-16 8 8 0 000 16z" fill="url(#hpaint1_linear_2_16)"/><path d="M8 14l.89-4h2.93l-.21.9H9.74l-.14.62h1.86l-.2.9H9.4L9.06 14H8zM11.8 12.26A2.28 2.28 0 0114 9.94h.13A1.81 1.81 0 0116 11.16l-1 .33a.88.88 0 00-.9-.64 1.28 1.28 0 00-1.24 1.32 1 1 0 001 1 1.098 1.098 0 00.87-.46l.8.53a2.13 2.13 0 01-1.73.84 1.849 1.849 0 01-2-1.71.612.612 0 010-.11z" fill="#FFD554"/><path d="M12 5.5a6.5 6.5 0 110 13 6.5 6.5 0 010-13zm0-.5a7 7 0 100 14 7 7 0 000-14z" fill="url(#hpaint2_linear_2_16)"/><defs><linearGradient id="hpaint0_linear_2_16" x1="12" y1="22" x2="12" y2="2" gradientUnits="userSpaceOnUse"><stop stop-color="#CDA537"/><stop offset="1" stop-color="#FFD554"/></linearGradient><linearGradient id="hpaint1_linear_2_16" x1="12" y1="20" x2="12" y2="4" gradientUnits="userSpaceOnUse"><stop stop-color="#1A1A1B"/><stop offset="1" stop-color="#2A2A2A"/></linearGradient><linearGradient id="hpaint2_linear_2_16" x1="0" y1="19" x2="12" y2="5" gradientUnits="userSpaceOnUse"><stop stop-color="#CDA537"/><stop offset="1" stop-color="#FFD554"/></linearGradient></defs></svg><svg viewBox="0 0 64 26" id="google-pay" xmlns="http://www.w3.org/2000/svg"><path d="M24.148 11.363H13.285v3.95h5.264a7.04 7.04 0 01-1.817 2.34l.003.003h-.005a6.883 6.883 0 01-4.434 1.607 6.91 6.91 0 01-6.913-6.914c0-1.433.436-2.76 1.18-3.865l.13-.171a6.867 6.867 0 015.6-2.877c1.847 0 3.527.72 4.76 1.906l3.298-3.684A11.826 11.826 0 0012.296.5C8.207.5 4.602 2.575 2.47 5.725a11.804 11.804 0 00-2.025 6.627 11.85 11.85 0 0011.85 11.852c3.158 0 6.027-1.234 8.151-3.248l-.002-.003a11.797 11.797 0 003.702-8.599v-.99h.003zm31.69 8.18L51.175 7.296h2.833l3.184 9.322 3.905-9.322h2.459l-7.69 18.142-2.458.063c.045-.103 2.43-5.956 2.43-5.956zm-7.976-4.735c0 1.517-1.336 2.598-3.103 2.598-1.388 0-2.275-.644-2.275-1.63 0-1.018.852-1.61 2.48-1.704l2.906-.213-.008.949zm-2.411-7.513c-2.77 0-4.818 1.528-4.894 3.626h2.35c.195-.999 1.153-1.651 2.467-1.651 1.594 0 2.496.715 2.496 2.038v.912l-3.26.169c-3.028.176-4.669 1.372-4.669 3.45 0 2.098 1.691 3.492 4.116 3.492 1.638 0 3.158-.8 3.847-2.067h.053l.008 2.067h2.406v-8.189c.002-2.34-1.938-3.847-4.92-3.847zm-11.926 4.01h-3.21V4.89h3.21c2.29 0 3.76 1.08 3.76 3.21s-1.459 3.206-3.76 3.206zm.768-8.822h-6.385V19.33h2.406v-5.617h3.89c3.34 0 5.737-2.33 5.737-5.617s-2.353-5.614-5.648-5.614z"/></svg><svg viewBox="0 0 30 30" id="instagram" xmlns="http://www.w3.org/2000/svg"><path d="M14.865 0C1.08 0 0 1.08 0 14.865v.27C0 28.92 1.08 30 14.865 30h.27C28.92 30 30 28.92 30 15.135V15C30 1.089 28.911 0 15 0h-.135zM12 3h6c8.347 0 9 .653 9 9v6c0 8.347-.653 9-9 9h-6c-8.347 0-9-.653-9-9v-6c0-8.347.653-9 9-9zm10.496 3a1.5 1.5 0 10.008 3 1.5 1.5 0 00-.008-3zm-7.514 1.5a7.5 7.5 0 10.037 15.002A7.5 7.5 0 0014.982 7.5zm.008 3a4.5 4.5 0 11.019 9.001 4.5 4.5 0 01-.02-9.001z"/></svg><svg viewBox="0 0 512 512" id="login" xmlns="http://www.w3.org/2000/svg"><path d="M352 96h64c17.7 0 32 14.3 32 32v256c0 17.7-14.3 32-32 32h-64c-17.7 0-32 14.3-32 32s14.3 32 32 32h64c53 0 96-43 96-96V128c0-53-43-96-96-96h-64c-17.7 0-32 14.3-32 32s14.3 32 32 32zm-9.4 182.6c12.5-12.5 12.5-32.8 0-45.3l-128-128c-12.5-12.5-32.8-12.5-45.3 0s-12.5 32.8 0 45.3l73.4 73.4H32c-17.7 0-32 14.3-32 32s14.3 32 32 32h210.7l-73.4 73.4c-12.5 12.5-12.5 32.8 0 45.3s32.8 12.5 45.3 0l128-128v-.1z"/></svg><svg viewBox="0 0 512 512" id="meteor" xmlns="http://www.w3.org/2000/svg"><path d="M493.7.9L299.4 75.6l2.3-29.3c1-12.8-12.8-21.5-24-15.1L101.3 133.4C38.6 169.7 0 236.6 0 309c0 112.1 90.9 203 203 203 72.4 0 139.4-38.6 175.7-101.3l102.1-176.4c6.5-11.1-2.2-25-15.1-24l-29.3 2.3 74.7-194.3c.6-1.5.9-3.2.9-4.8C512 6 506 0 498.5 0c-1.7 0-3.3.3-4.8.9zM192 192a128.003 128.003 0 0190.51 37.49 128.003 128.003 0 010 181.02 128.003 128.003 0 01-181.02 0A128.002 128.002 0 01192 192zm0 96a31.996 31.996 0 00-9.373-22.627 31.996 31.996 0 00-45.254 0 31.996 31.996 0 000 45.254 31.996 31.996 0 0045.254 0A31.996 31.996 0 00192 288zm16 96c4.243 0 8.313-1.686 11.314-4.686a16.004 16.004 0 000-22.628 16.004 16.004 0 00-22.628 0 16.004 16.004 0 000 22.628c3.001 3 7.071 4.686 11.314 4.686z"/></svg><svg viewBox="0 0 512 512" id="playstation" xmlns="http://www.w3.org/2000/svg"><path d="M507.47 360.929c-10.044 12.621-34.487 21.599-34.487 21.599L290.68 447.947v-48.264l134.127-47.821c15.199-5.421 17.599-13.155 5.156-17.243-12.356-4.089-34.755-2.934-49.954 2.577L290.68 368.75v-50.131c20.621-6.933 41.865-12.088 67.285-14.932 36.354-4 80.797.533 115.729 13.777 39.287 12.443 43.731 30.843 33.776 43.465zM308.012 278.71V155.16c0-14.488-2.666-27.821-16.265-31.643-10.4-3.378-16.889 6.31-16.889 20.799v309.231l-83.374-26.488V58.453c35.465 6.578 87.107 22.132 114.84 31.465 70.663 24.266 94.573 54.487 94.573 122.484 0 66.219-40.887 91.374-92.885 66.308zM38.424 394.616c-40.353-11.377-47.109-35.109-28.71-48.709 16.977-12.622 45.954-22.132 45.954-22.132l119.55-42.487v48.442l-86.04 30.754c-15.2 5.423-17.51 13.155-5.156 17.244 12.355 4.089 34.754 2.933 49.954-2.578l41.242-15.021v43.376c-45.864 8.266-90.13 6.488-136.794-8.889z"/></svg><svg viewBox="0 0 512 512" id="shield" xmlns="http://www.w3.org/2000/svg"><path d="M256 0c4.6 0 9.2 1 13.4 2.9l188.3 79.9c22 9.3 38.4 31 38.3 57.2-.5 99.2-41.3 280.7-213.6 363.2-16.7 8-36.1 8-52.8 0C57.3 420.7 16.5 239.2 16 140c-.1-26.2 16.3-47.9 38.3-57.2L242.7 2.9C246.8 1 251.4 0 256 0z"/></svg><svg viewBox="0 0 512 512" id="sign-in" xmlns="http://www.w3.org/2000/svg"><path d="M502.6 278.6c12.5-12.5 12.5-32.8 0-45.3l-128-128c-12.5-12.5-32.8-12.5-45.3 0s-12.5 32.8 0 45.3l73.4 73.4H192c-17.7 0-32 14.3-32 32s14.3 32 32 32h210.7l-73.4 73.4c-12.5 12.5-12.5 32.8 0 45.3s32.8 12.5 45.3 0l128-128v-.1zM160 96c17.7 0 32-14.3 32-32s-14.3-32-32-32H96C43 32 0 75 0 128v256c0 53 43 96 96 96h64c17.7 0 32-14.3 32-32s-14.3-32-32-32H96c-17.7 0-32-14.3-32-32V128c0-17.7 14.3-32 32-32h64z"/></svg><svg viewBox="0 0 512 512" id="star" xmlns="http://www.w3.org/2000/svg"><path d="M0 0v512h512V0H0zm414.244 234.276l-64.075 62.481 15.097 88.19c2.89 16.89-14.848 29.795-29.995 21.823l-79.221-41.654-79.222 41.654c-15.146 7.972-32.934-4.883-29.994-21.823l15.097-88.19-64.075-62.481c-12.257-11.958-5.48-32.834 11.46-35.276l88.538-12.854 39.611-80.268c7.574-15.396 29.546-15.396 37.12 0l39.61 80.268L402.734 199c16.99 2.442 23.767 23.318 11.46 35.276h.05z"/></svg><svg viewBox="0 0 64 26" id="stripe" xmlns="http://www.w3.org/2000/svg"><path fill-rule="evenodd" clip-rule="evenodd" d="M61.79 14.9h-8.06c.19 1.93 1.6 2.55 3.2 2.55 1.64 0 2.96-.37 4.05-.95v3.32a8.33 8.33 0 01-4.56 1.1c-4.01 0-6.83-2.5-6.83-7.48 0-4.19 2.39-7.52 6.3-7.52 3.92 0 5.96 3.28 5.96 7.5 0 .4-.04 1.26-.06 1.48zm-5.92-5.62c-1.03 0-2.17.73-2.17 2.58h4.25c0-1.85-1.07-2.58-2.08-2.58zM43.1 20.92c-1.44 0-2.32-.6-2.9-1.04l-.02 4.63-4.12.87V6.19h3.76l.08 1.02a4.7 4.7 0 013.23-1.29c2.9 0 5.62 2.6 5.62 7.4 0 5.23-2.7 7.6-5.65 7.6zm-.95-11.35c-.95 0-1.54.34-1.97.81l.02 6.12c.4.44.98.78 1.95.78 1.52 0 2.54-1.65 2.54-3.87 0-2.15-1.04-3.84-2.54-3.84zM30.39 6.19h4.13v14.44h-4.13V6.19zm0-4.7l4.13-.87v3.36l-4.13.88V1.49zm-4.32 9.35v9.79h-4.12V6.19h3.7l.12 1.22c1-1.77 3.07-1.41 3.62-1.22v3.79c-.52-.17-2.29-.43-3.32.86zm-8.55 4.72c0 2.43 2.6 1.68 3.12 1.46v3.36c-.55.3-1.54.54-2.89.54a4.15 4.15 0 01-4.27-4.24l.01-13.17 4.02-.86v3.54h3.14v3.53h-3.13v5.85-.01zm-4.91.7c0 2.97-2.31 4.66-5.73 4.66a11.2 11.2 0 01-4.46-.93v-3.93c1.38.75 3.1 1.31 4.46 1.31.92 0 1.53-.24 1.53-1 0-1.98-6.26-1.24-6.26-5.8 0-2.91 2.28-4.65 5.62-4.65 1.36 0 2.72.2 4.09.75v3.88a9.23 9.23 0 00-4.1-1.06c-.86 0-1.44.25-1.44.9 0 1.85 6.29.97 6.29 5.88v-.01z"/></svg><svg viewBox="0 0 512 512" id="user" xmlns="http://www.w3.org/2000/svg"><path d="M399 384.2c-22.1-38.4-63.6-64.2-111-64.2h-64c-47.4 0-88.9 25.8-111 64.2 35.2 39.2 86.2 63.8 143 63.8s107.8-24.7 143-63.8zM0 256a256 256 0 11512.001 0A256 256 0 010 256zm256 16a72.003 72.003 0 0072-72 72.003 72.003 0 00-72-72 72.003 72.003 0 00-72 72 72.003 72.003 0 0072 72z"/></svg><svg viewBox="0 0 640 640" id="user-plus" xmlns="http://www.w3.org/2000/svg"><path d="M96 192a128.002 128.002 0 01256 0 128.003 128.003 0 01-37.49 90.51 128.003 128.003 0 01-181.02 0A128.003 128.003 0 0196 192zM0 546.3C0 447.8 79.8 368 178.3 368h91.4c98.5 0 178.3 79.8 178.3 178.3 0 16.4-13.3 29.7-29.7 29.7H29.7C13.3 576 0 562.7 0 546.3zM504 376v-64h-64c-13.3 0-24-10.7-24-24s10.7-24 24-24h64v-64c0-13.3 10.7-24 24-24s24 10.7 24 24v64h64c13.3 0 24 10.7 24 24s-10.7 24-24 24h-64v64c0 13.3-10.7 24-24 24s-24-10.7-24-24z"/></svg></svg>