<svg width="512" height="512" viewBox="0 0 512 512" xmlns="http://www.w3.org/2000/svg"><path d="M507.47 360.929C497.426 373.55 472.983 382.528 472.983 382.528L290.68 447.947V399.683L424.807 351.862C440.006 346.441 442.406 338.707 429.963 334.619C417.607 330.53 395.208 331.685 380.009 337.196L290.68 368.75V318.619C311.301 311.686 332.545 306.531 357.965 303.687C394.319 299.687 438.762 304.22 473.694 317.464C512.981 329.907 517.425 348.307 507.47 360.929ZM308.012 278.71V155.16C308.012 140.672 305.346 127.339 291.747 123.517C281.347 120.139 274.858 129.827 274.858 144.316V453.547L191.484 427.059V58.4531C226.949 65.0306 278.591 80.5855 306.324 89.9181C376.987 114.184 400.897 144.405 400.897 212.402C400.897 278.621 360.01 303.776 308.012 278.71ZM38.4243 394.616C-1.92949 383.239 -8.68474 359.507 9.7144 345.907C26.6915 333.285 55.6679 323.775 55.6679 323.775L175.218 281.288V329.73L89.1778 360.484C73.9782 365.907 71.6672 373.639 84.0222 377.728C96.3769 381.817 118.776 380.661 133.976 375.15L175.218 360.129V403.505C129.354 411.771 85.0889 409.993 38.4243 394.616Z"/></svg>