<svg width="512" height="512" viewBox="0 0 512 512" xmlns="http://www.w3.org/2000/svg"><path d="M0 0V512H512V0H0ZM414.244 234.276L350.169 296.757L365.266 384.947C368.156 401.837 350.418 414.742 335.271 406.77L256.05 365.116L176.828 406.77C161.682 414.742 143.894 401.887 146.834 384.947L161.931 296.757L97.856 234.276C85.5991 222.318 92.3752 201.442 109.316 199L197.854 186.146L237.465 105.878C245.039 90.4819 267.011 90.4819 274.585 105.878L314.195 186.146L402.734 199C419.724 201.442 426.501 222.318 414.194 234.276H414.244Z"/></svg>