<svg width="64" height="26" viewBox="0 0 64 26" xmlns="http://www.w3.org/2000/svg"><path fill-rule="evenodd" clip-rule="evenodd" d="M61.79 14.9H53.73C53.92 16.83 55.33 17.45 56.93 17.45C58.57 17.45 59.89 17.08 60.98 16.5V19.82C59.5968 20.6159 58.014 20.9977 56.42 20.92C52.41 20.92 49.59 18.42 49.59 13.44C49.59 9.24999 51.98 5.92 55.89 5.92C59.81 5.92 61.85 9.2 61.85 13.42C61.85 13.82 61.81 14.68 61.79 14.9ZM55.87 9.27999C54.84 9.27999 53.7 10.01 53.7 11.86H57.95C57.95 10.01 56.88 9.27999 55.87 9.27999ZM43.1 20.92C41.66 20.92 40.78 20.32 40.2 19.88L40.18 24.51L36.06 25.38V6.19H39.82L39.9 7.21C40.7721 6.38279 41.928 5.92115 43.13 5.92C46.03 5.92 48.75 8.51999 48.75 13.32C48.75 18.55 46.05 20.92 43.1 20.92ZM42.15 9.56999C41.2 9.56999 40.61 9.91 40.18 10.38L40.2 16.5C40.6 16.94 41.18 17.28 42.15 17.28C43.67 17.28 44.69 15.63 44.69 13.41C44.69 11.26 43.65 9.56999 42.15 9.56999ZM30.39 6.19H34.52V20.63H30.39V6.19ZM30.39 1.49L34.52 0.619995V3.98L30.39 4.85999V1.5V1.49ZM26.07 10.84V20.63H21.95V6.19H25.65L25.77 7.41C26.77 5.64 28.84 6 29.39 6.19V9.97999C28.87 9.80999 27.1 9.55 26.07 10.84ZM17.52 15.56C17.52 17.99 20.12 17.24 20.64 17.02V20.38C20.09 20.68 19.1 20.92 17.75 20.92C17.1873 20.9364 16.6272 20.8382 16.1037 20.6313C15.5802 20.4244 15.1043 20.1132 14.7049 19.7166C14.3054 19.32 13.9909 18.8462 13.7803 18.3242C13.5697 17.8022 13.4676 17.2428 13.48 16.68L13.49 3.51L17.51 2.65V6.19H20.65V9.72H17.52V15.57V15.56ZM12.61 16.26C12.61 19.23 10.3 20.92 6.88002 20.92C5.34534 20.9188 3.82727 20.6023 2.42002 19.99V16.06C3.80002 16.81 5.52002 17.37 6.88002 17.37C7.80002 17.37 8.41002 17.13 8.41002 16.37C8.41002 14.39 2.15002 15.13 2.15002 10.57C2.15002 7.65999 4.43002 5.92 7.77002 5.92C9.13002 5.92 10.49 6.12 11.86 6.67V10.55C10.594 9.88369 9.19037 9.5208 7.76002 9.49C6.90002 9.49 6.32002 9.74 6.32002 10.39C6.32002 12.24 12.61 11.36 12.61 16.27V16.26Z"/></svg>